<svg width="192" height="50" viewBox="0 0 192 50" fill="none" xmlns="http://www.w3.org/2000/svg">
<g clip-path="url(#clip0)">
<path d="M28.0007 10.7819L6.75469 28.8484C6.59719 28.9853 6.39594 29.0491 6.22288 29.1625V46.5006C6.22288 46.8985 6.38677 47.28 6.6785 47.5613C6.97022 47.8426 7.36588 48.0006 7.77844 48.0006H48.2229C48.6354 48.0006 49.0311 47.8426 49.3228 47.5613C49.6146 47.28 49.7784 46.8985 49.7784 46.5006V29.1663C49.6132 29.0575 49.4168 28.9956 49.2671 28.8663L28.0007 10.7819ZM37.334 35.2506C37.334 35.4495 37.2521 35.6403 37.1062 35.781C36.9603 35.9216 36.7625 36.0006 36.5562 36.0006H31.1118V41.2506C31.1118 41.4495 31.0298 41.6403 30.884 41.781C30.7381 41.9216 30.5403 42.0006 30.334 42.0006H25.6673C25.4611 42.0006 25.2632 41.9216 25.1174 41.781C24.9715 41.6403 24.8896 41.4495 24.8896 41.2506V36.0006H19.4451C19.2388 36.0006 19.041 35.9216 18.8951 35.781C18.7493 35.6403 18.6673 35.4495 18.6673 35.2506V30.7506C18.6673 30.5517 18.7493 30.3609 18.8951 30.2203C19.041 30.0796 19.2388 30.0006 19.4451 30.0006H24.8896V24.7506C24.8896 24.5517 24.9715 24.3609 25.1174 24.2203C25.2632 24.0796 25.4611 24.0006 25.6673 24.0006H30.334C30.5403 24.0006 30.7381 24.0796 30.884 24.2203C31.0298 24.3609 31.1118 24.5517 31.1118 24.7506V30.0006H36.5562C36.7625 30.0006 36.9603 30.0796 37.1062 30.2203C37.2521 30.3609 37.334 30.5517 37.334 30.7506V35.2506ZM55.4844 22.1519L30.6014 0.964377C29.8892 0.343473 28.9632 -0.000305176 28.0031 -0.000305176C27.043 -0.000305176 26.117 0.343473 25.4048 0.964377L0.51594 22.1519C0.363904 22.2835 0.240256 22.4428 0.152059 22.6205C0.0638621 22.7982 0.0128441 22.991 0.00191963 23.1878C-0.00900482 23.3845 0.0203784 23.5814 0.0883907 23.7672C0.156403 23.953 0.261712 24.1241 0.398301 24.2706L2.47983 26.5038C2.61635 26.6504 2.78149 26.7696 2.96581 26.8546C3.15013 26.9397 3.35002 26.9889 3.55407 26.9994C3.75811 27.0099 3.96231 26.9816 4.15499 26.916C4.34768 26.8504 4.52508 26.7489 4.67705 26.6172L26.9721 7.65344C27.2562 7.41168 27.6222 7.27827 28.0012 7.27827C28.3801 7.27827 28.7461 7.41168 29.0302 7.65344L51.3252 26.6163C51.4772 26.748 51.6546 26.8495 51.8473 26.9151C52.04 26.9807 52.2442 27.009 52.4482 26.9985C52.6523 26.9879 52.8522 26.9387 53.0365 26.8537C53.2208 26.7687 53.386 26.6494 53.5225 26.5028L55.603 24.2697C55.8785 23.9736 56.0207 23.5842 55.9985 23.1871C55.9762 22.79 55.7913 22.4176 55.4844 22.1519V22.1519Z" fill="white"/>
</g>
<path d="M96.8906 34.4219C96.7135 36.8698 95.8073 38.7969 94.1719 40.2031C92.5469 41.6094 90.401 42.3125 87.7344 42.3125C84.8177 42.3125 82.5208 41.3333 80.8438 39.375C79.1771 37.4062 78.3438 34.7083 78.3438 31.2812V29.8906C78.3438 27.7031 78.7292 25.776 79.5 24.1094C80.2708 22.4427 81.3698 21.1667 82.7969 20.2812C84.2344 19.3854 85.901 18.9375 87.7969 18.9375C90.4219 18.9375 92.5365 19.6406 94.1406 21.0469C95.7448 22.4531 96.6719 24.4271 96.9219 26.9688H92.2344C92.1198 25.5 91.7083 24.4375 91 23.7812C90.3021 23.1146 89.2344 22.7812 87.7969 22.7812C86.2344 22.7812 85.0625 23.3438 84.2812 24.4688C83.5104 25.5833 83.1146 27.3177 83.0938 29.6719V31.3906C83.0938 33.849 83.4635 35.6458 84.2031 36.7812C84.9531 37.9167 86.1302 38.4844 87.7344 38.4844C89.1823 38.4844 90.2604 38.1562 90.9688 37.5C91.6875 36.8333 92.099 35.8073 92.2031 34.4219H96.8906ZM104.438 42H99.9062V18H104.438V42ZM113.047 42H108.531V25.0938H113.047V42ZM111.719 18.2344H116.641L112.312 23.0781H108.641L111.719 18.2344ZM121.109 25.0938L121.25 27.0469C122.458 25.5365 124.078 24.7812 126.109 24.7812C127.901 24.7812 129.234 25.3073 130.109 26.3594C130.984 27.4115 131.432 28.9844 131.453 31.0781V42H126.938V31.1875C126.938 30.2292 126.729 29.5365 126.312 29.1094C125.896 28.6719 125.203 28.4531 124.234 28.4531C122.964 28.4531 122.01 28.9948 121.375 30.0781V42H116.859V25.0938H121.109ZM139.656 42H135.125V25.0938H139.656V42ZM134.859 20.7188C134.859 20.0417 135.083 19.4844 135.531 19.0469C135.99 18.6094 136.609 18.3906 137.391 18.3906C138.161 18.3906 138.776 18.6094 139.234 19.0469C139.693 19.4844 139.922 20.0417 139.922 20.7188C139.922 21.4062 139.688 21.9688 139.219 22.4062C138.76 22.8438 138.151 23.0625 137.391 23.0625C136.63 23.0625 136.016 22.8438 135.547 22.4062C135.089 21.9688 134.859 21.4062 134.859 20.7188ZM150.422 38.6719C151.255 38.6719 151.932 38.4427 152.453 37.9844C152.974 37.526 153.245 36.9167 153.266 36.1562H157.5C157.49 37.3021 157.177 38.3542 156.562 39.3125C155.948 40.2604 155.104 41 154.031 41.5312C152.969 42.0521 151.792 42.3125 150.5 42.3125C148.083 42.3125 146.177 41.5469 144.781 40.0156C143.385 38.474 142.688 36.349 142.688 33.6406V33.3438C142.688 30.7396 143.38 28.6615 144.766 27.1094C146.151 25.5573 148.052 24.7812 150.469 24.7812C152.583 24.7812 154.276 25.3854 155.547 26.5938C156.828 27.7917 157.479 29.3906 157.5 31.3906H153.266C153.245 30.5156 152.974 29.8073 152.453 29.2656C151.932 28.7135 151.245 28.4375 150.391 28.4375C149.339 28.4375 148.542 28.8229 148 29.5938C147.469 30.3542 147.203 31.5938 147.203 33.3125V33.7812C147.203 35.5208 147.469 36.7708 148 37.5312C148.531 38.2917 149.339 38.6719 150.422 38.6719ZM169.875 42C169.667 41.5938 169.516 41.0885 169.422 40.4844C168.328 41.7031 166.906 42.3125 165.156 42.3125C163.5 42.3125 162.125 41.8333 161.031 40.875C159.948 39.9167 159.406 38.7083 159.406 37.25C159.406 35.4583 160.068 34.0833 161.391 33.125C162.724 32.1667 164.646 31.6823 167.156 31.6719H169.234V30.7031C169.234 29.9219 169.031 29.2969 168.625 28.8281C168.229 28.3594 167.599 28.125 166.734 28.125C165.974 28.125 165.375 28.3073 164.938 28.6719C164.51 29.0365 164.297 29.5365 164.297 30.1719H159.781C159.781 29.1927 160.083 28.2865 160.688 27.4531C161.292 26.6198 162.146 25.9688 163.25 25.5C164.354 25.0208 165.594 24.7812 166.969 24.7812C169.052 24.7812 170.703 25.3073 171.922 26.3594C173.151 27.401 173.766 28.8698 173.766 30.7656V38.0938C173.776 39.6979 174 40.9115 174.438 41.7344V42H169.875ZM166.141 38.8594C166.807 38.8594 167.422 38.7135 167.984 38.4219C168.547 38.1198 168.964 37.7188 169.234 37.2188V34.3125H167.547C165.286 34.3125 164.083 35.0938 163.938 36.6562L163.922 36.9219C163.922 37.4844 164.12 37.9479 164.516 38.3125C164.911 38.6771 165.453 38.8594 166.141 38.8594ZM186.391 37.3281C186.391 36.776 186.115 36.3438 185.562 36.0312C185.021 35.7083 184.146 35.4219 182.938 35.1719C178.917 34.3281 176.906 32.6198 176.906 30.0469C176.906 28.5469 177.526 27.2969 178.766 26.2969C180.016 25.2865 181.646 24.7812 183.656 24.7812C185.802 24.7812 187.516 25.2865 188.797 26.2969C190.089 27.3073 190.734 28.6198 190.734 30.2344H186.219C186.219 29.5885 186.01 29.0573 185.594 28.6406C185.177 28.2135 184.526 28 183.641 28C182.88 28 182.292 28.1719 181.875 28.5156C181.458 28.8594 181.25 29.2969 181.25 29.8281C181.25 30.3281 181.484 30.7344 181.953 31.0469C182.432 31.349 183.234 31.6146 184.359 31.8438C185.484 32.0625 186.432 32.3125 187.203 32.5938C189.589 33.4688 190.781 34.9844 190.781 37.1406C190.781 38.6823 190.12 39.9323 188.797 40.8906C187.474 41.8385 185.766 42.3125 183.672 42.3125C182.255 42.3125 180.995 42.0625 179.891 41.5625C178.797 41.0521 177.938 40.3594 177.312 39.4844C176.688 38.599 176.375 37.6458 176.375 36.625H180.656C180.698 37.4271 180.995 38.0417 181.547 38.4688C182.099 38.8958 182.839 39.1094 183.766 39.1094C184.63 39.1094 185.281 38.9479 185.719 38.625C186.167 38.2917 186.391 37.8594 186.391 37.3281Z" fill="#ECECEC"/>
<defs>
<clipPath id="clip0">
<rect width="56" height="48" fill="white"/>
</clipPath>
</defs>
</svg>
