<svg width="28" height="28" viewBox="0 0 28 28" fill="none" xmlns="http://www.w3.org/2000/svg">
<path d="M21.3125 0.291667C23.1458 0.291667 24.7188 0.904167 26.0312 2.12917C27.3438 3.35417 28 4.82222 28 6.53333C28 7.38889 27.4479 8.70139 26.3438 10.4708C25.2396 12.2403 24.1562 14.0389 23.0938 15.8667C22.0312 17.6944 21.5625 19.1528 21.6875 20.2417C21.6875 20.4361 21.5729 20.5333 21.3438 20.5333C21.1146 20.5333 21 20.4361 21 20.2417C21.0833 19.1528 20.6042 17.6944 19.5625 15.8667C18.5208 14.0389 17.4479 12.2403 16.3438 10.4708C15.2396 8.70139 14.6875 7.38889 14.6875 6.53333C14.6875 4.82222 15.3333 3.35417 16.625 2.12917C17.9167 0.904167 19.4792 0.291667 21.3125 0.291667ZM21.3438 4.025C20.6146 4.025 19.9896 4.26806 19.4688 4.75417C18.9479 5.24028 18.6875 5.83333 18.6875 6.53333C18.6875 7.23333 18.9479 7.82639 19.4688 8.3125C19.9896 8.79861 20.6146 9.04167 21.3438 9.04167C22.0729 9.04167 22.6979 8.79861 23.2188 8.3125C23.7396 7.82639 24 7.23333 24 6.53333C24 5.83333 23.7396 5.24028 23.2188 4.75417C22.6979 4.26806 22.0729 4.025 21.3438 4.025ZM2.6875 2.8H14.25C13.4167 4.04444 13 5.38611 13 6.825C13 7.83611 13.6667 9.45 15 11.6667L0.0625 25.6083L0 25.2V5.30833C0 4.60833 0.260417 4.01528 0.78125 3.52917C1.30208 3.04306 1.9375 2.8 2.6875 2.8ZM19.375 18.8417L16.1875 15.8667L17.0625 14.9917C18.0625 16.5083 18.8333 17.7917 19.375 18.8417ZM23.1875 27.7083H3.5L13.3125 18.4917L23.1875 27.7083ZM26.6875 13.2417V25.2L26.625 25.6083L22.125 21.4083C22.25 21.0583 22.3958 20.6986 22.5625 20.3292C22.7292 19.9597 22.9167 19.5708 23.125 19.1625C23.3333 18.7542 23.5312 18.3847 23.7188 18.0542C23.9062 17.7236 24.1562 17.3056 24.4688 16.8C24.7812 16.2944 25.0104 15.9153 25.1562 15.6625C25.3021 15.4097 25.5625 14.9917 25.9375 14.4083L26.6875 13.2417ZM6.25 14.6417C5.54167 14.6417 4.97917 14.5056 4.5625 14.2333C4.14583 13.9611 3.9375 13.5917 3.9375 13.125C3.9375 12.5806 4.3125 12.1722 5.0625 11.9C5.47917 11.7833 5.9375 11.725 6.4375 11.725H6.75C7.29167 12.1139 7.66667 12.4056 7.875 12.6C8.08333 12.7944 8.1875 13.0278 8.1875 13.3C8.1875 13.65 8 13.9611 7.625 14.2333C7.25 14.5056 6.79167 14.6417 6.25 14.6417ZM4.6875 7.525C4.6875 7.13611 4.80208 6.83472 5.03125 6.62083C5.26042 6.40694 5.52083 6.3 5.8125 6.3C6.35417 6.3 6.78125 6.53333 7.09375 7C7.40625 7.46667 7.5625 7.95278 7.5625 8.45833C7.5625 8.88611 7.42708 9.1875 7.15625 9.3625C6.88542 9.5375 6.60417 9.625 6.3125 9.625C5.85417 9.625 5.46875 9.40139 5.15625 8.95417C4.84375 8.50694 4.6875 8.03056 4.6875 7.525ZM7.9375 11.1417L7.5 10.7917C7.25 10.5972 7.125 10.4222 7.125 10.2667C7.125 9.99444 7.27083 9.76111 7.5625 9.56667C8.27083 9.06111 8.625 8.49722 8.625 7.875C8.625 7.33056 8.33333 6.825 7.75 6.35833H8.5L9.0625 5.83333H6.375C5.5 5.83333 4.82292 6.05694 4.34375 6.50417C3.86458 6.95139 3.625 7.48611 3.625 8.10833C3.625 8.61389 3.8125 9.06111 4.1875 9.45C4.5625 9.83889 5.08333 10.0333 5.75 10.0333H6.0625L5.9375 10.5C5.9375 10.7722 6.0625 11.0444 6.3125 11.3167C5.3125 11.3556 4.47917 11.5694 3.8125 11.9583C3.14583 12.3083 2.8125 12.7944 2.8125 13.4167C2.8125 13.9222 3.05208 14.3403 3.53125 14.6708C4.01042 15.0014 4.70833 15.1667 5.625 15.1667C6.66667 15.1667 7.48958 14.9333 8.09375 14.4667C8.69792 14 9 13.475 9 12.8917C9 12.2694 8.64583 11.6861 7.9375 11.1417Z" fill="#2793A2"/>
</svg>
