<svg width="20" height="20" viewBox="0 0 20 20" fill="none" xmlns="http://www.w3.org/2000/svg">
<path fill-rule="evenodd" clip-rule="evenodd" d="M14.8174 5.1825C14.8756 5.24056 14.9218 5.30953 14.9533 5.38546C14.9848 5.46139 15.0011 5.54279 15.0011 5.625C15.0011 5.70721 14.9848 5.78861 14.9533 5.86455C14.9218 5.94048 14.8756 6.00945 14.8174 6.0675L6.06744 14.8175C5.95008 14.9349 5.7909 15.0008 5.62494 15.0008C5.45897 15.0008 5.29979 14.9349 5.18243 14.8175C5.06508 14.7001 4.99915 14.541 4.99915 14.375C4.99915 14.209 5.06508 14.0499 5.18243 13.9325L13.9324 5.1825C13.9905 5.1243 14.0595 5.07812 14.1354 5.04661C14.2113 5.0151 14.2927 4.99889 14.3749 4.99889C14.4571 4.99889 14.5385 5.0151 14.6145 5.04661C14.6904 5.07812 14.7594 5.1243 14.8174 5.1825V5.1825Z" fill="#2F2C2C"/>
<path fill-rule="evenodd" clip-rule="evenodd" d="M5.18252 5.1825C5.12431 5.24056 5.07814 5.30953 5.04663 5.38546C5.01512 5.46139 4.9989 5.54279 4.9989 5.625C4.9989 5.70721 5.01512 5.78861 5.04663 5.86455C5.07814 5.94048 5.12431 6.00945 5.18252 6.0675L13.9325 14.8175C14.0499 14.9349 14.209 15.0008 14.375 15.0008C14.541 15.0008 14.7002 14.9349 14.8175 14.8175C14.9349 14.7001 15.0008 14.541 15.0008 14.375C15.0008 14.209 14.9349 14.0499 14.8175 13.9325L6.06752 5.1825C6.00946 5.1243 5.94049 5.07812 5.86456 5.04661C5.78863 5.0151 5.70723 4.99889 5.62502 4.99889C5.54281 4.99889 5.46141 5.0151 5.38548 5.04661C5.30955 5.07812 5.24058 5.1243 5.18252 5.1825V5.1825Z" fill="#2F2C2C"/>
</svg>
