<svg width="56" height="48" viewBox="0 0 56 48" fill="none" xmlns="http://www.w3.org/2000/svg">
<g clip-path="url(#clip0)">
<path d="M28.0007 10.7819L6.75469 28.8484C6.59719 28.9853 6.39594 29.0491 6.22288 29.1625V46.5006C6.22288 46.8985 6.38677 47.28 6.6785 47.5613C6.97022 47.8426 7.36588 48.0006 7.77844 48.0006H48.2229C48.6354 48.0006 49.0311 47.8426 49.3228 47.5613C49.6146 47.28 49.7784 46.8985 49.7784 46.5006V29.1663C49.6132 29.0575 49.4168 28.9956 49.2671 28.8663L28.0007 10.7819ZM37.334 35.2506C37.334 35.4495 37.2521 35.6403 37.1062 35.781C36.9603 35.9216 36.7625 36.0006 36.5562 36.0006H31.1118V41.2506C31.1118 41.4495 31.0298 41.6403 30.884 41.781C30.7381 41.9216 30.5403 42.0006 30.334 42.0006H25.6673C25.4611 42.0006 25.2632 41.9216 25.1174 41.781C24.9715 41.6403 24.8896 41.4495 24.8896 41.2506V36.0006H19.4451C19.2388 36.0006 19.041 35.9216 18.8951 35.781C18.7493 35.6403 18.6673 35.4495 18.6673 35.2506V30.7506C18.6673 30.5517 18.7493 30.3609 18.8951 30.2203C19.041 30.0796 19.2388 30.0006 19.4451 30.0006H24.8896V24.7506C24.8896 24.5517 24.9715 24.3609 25.1174 24.2203C25.2632 24.0796 25.4611 24.0006 25.6673 24.0006H30.334C30.5403 24.0006 30.7381 24.0796 30.884 24.2203C31.0298 24.3609 31.1118 24.5517 31.1118 24.7506V30.0006H36.5562C36.7625 30.0006 36.9603 30.0796 37.1062 30.2203C37.2521 30.3609 37.334 30.5517 37.334 30.7506V35.2506ZM55.4844 22.1519L30.6014 0.964377C29.8892 0.343473 28.9632 -0.000305176 28.0031 -0.000305176C27.043 -0.000305176 26.117 0.343473 25.4048 0.964377L0.51594 22.1519C0.363904 22.2835 0.240256 22.4428 0.152059 22.6205C0.0638621 22.7982 0.0128441 22.991 0.00191963 23.1878C-0.00900482 23.3845 0.0203784 23.5814 0.0883907 23.7672C0.156403 23.953 0.261712 24.1241 0.398301 24.2706L2.47983 26.5038C2.61635 26.6504 2.78149 26.7696 2.96581 26.8546C3.15013 26.9397 3.35002 26.9889 3.55407 26.9994C3.75811 27.0099 3.96231 26.9816 4.15499 26.916C4.34768 26.8504 4.52508 26.7489 4.67705 26.6172L26.9721 7.65344C27.2562 7.41168 27.6222 7.27827 28.0012 7.27827C28.3801 7.27827 28.7461 7.41168 29.0302 7.65344L51.3252 26.6163C51.4772 26.748 51.6546 26.8495 51.8473 26.9151C52.04 26.9807 52.2442 27.009 52.4482 26.9985C52.6523 26.9879 52.8522 26.9387 53.0365 26.8537C53.2208 26.7687 53.386 26.6494 53.5225 26.5028L55.603 24.2697C55.8785 23.9736 56.0207 23.5842 55.9985 23.1871C55.9762 22.79 55.7913 22.4176 55.4844 22.1519V22.1519Z" fill="white"/>
</g>
<defs>
<clipPath id="clip0">
<rect width="56" height="48" fill="white"/>
</clipPath>
</defs>
</svg>
